<svg xmlns="http://www.w3.org/2000/svg" viewBox="0 0 256 256" role="img" aria-label="Synodic Month"><defs><radialGradient id="bgGlow" cx="20%" cy="18%" r="80%"><stop offset="0" stop-color="#a855f7" stop-opacity="0.22" /><stop offset="0.5" stop-color="#7c3aed" stop-opacity="0.10" /><stop offset="1" stop-color="#07070a" stop-opacity="0" /></radialGradient><radialGradient id="moon" cx="35%" cy="32%" r="75%"><stop offset="0" stop-color="#ffffff" stop-opacity="0.10" /><stop offset="0.35" stop-color="#a855f7" stop-opacity="0.12" /><stop offset="1" stop-color="#000000" stop-opacity="0.62" /></radialGradient><radialGradient id="moonRim" cx="60%" cy="58%" r="75%"><stop offset="0" stop-color="#ffffff" stop-opacity="0.18" /><stop offset="1" stop-color="#a855f7" stop-opacity="0" /></radialGradient><linearGradient id="orbit" x1="0" y1="0" x2="1" y2="1"><stop offset="0" stop-color="#a855f7" stop-opacity="0.75" /><stop offset="1" stop-color="#60a5fa" stop-opacity="0.55" /></linearGradient><filter id="softGlow" x="-40%" y="-40%" width="180%" height="180%"><feGaussianBlur stdDeviation="2.6" result="b" /><feColorMatrix in="b" type="matrix" values="1 0 0 0 0 0 1 0 0 0 0 0 1 0 0 0 0 0 0.9 0" result="c" /><feMerge><feMergeNode in="c" /><feMergeNode in="SourceGraphic" /></feMerge></filter><clipPath id="moonClip"><circle cx="128" cy="132" r="64" /></clipPath></defs><rect width="256" height="256" rx="56" fill="#07070a" /><rect width="256" height="256" rx="56" fill="url(#bgGlow)" /><g opacity="0.95"><circle cx="128" cy="132" r="72" fill="#000000" opacity="0.22" /><circle cx="128" cy="132" r="66" fill="url(#moonRim)" opacity="0.9" /><circle cx="128" cy="132" r="64" fill="url(#moon)" /><circle cx="128" cy="132" r="64" fill="#000000" opacity="0.10" /><circle cx="128" cy="132" r="64" fill="none" stroke="#ffffff" stroke-opacity="0.08" stroke-width="2" /></g><g opacity="0.9" filter="url(#softGlow)"><ellipse cx="128" cy="128" rx="92" ry="56" transform="rotate(-20 128 128)" fill="none" stroke="url(#orbit)" stroke-width="6" stroke-opacity="0.22" /><ellipse cx="128" cy="128" rx="92" ry="56" transform="rotate(-20 128 128)" fill="none" stroke="url(#orbit)" stroke-width="6" stroke-linecap="round" stroke-opacity="0.55" stroke-dasharray="160 360" stroke-dashoffset="72" /></g><g opacity="0.95"><circle cx="156" cy="68" r="10" fill="#000000" opacity="0.22" /><circle cx="156" cy="68" r="6" fill="#f4c542" opacity="0.95" /><circle cx="156" cy="68" r="12" fill="#f4c542" opacity="0.10" /></g></svg>